<?xml version="1.0" standalone="no"?>
<!DOCTYPE svg PUBLIC "-//W3C//DTD SVG 20010904//EN"
 "http://www.w3.org/TR/2001/REC-SVG-20010904/DTD/svg10.dtd">
<svg version="1.0" xmlns="http://www.w3.org/2000/svg"
 width="675.000000pt" height="675.000000pt" viewBox="0 0 675.000000 675.000000"
 preserveAspectRatio="xMidYMid meet">
<metadata>
Created by potrace 1.10, written by Peter Selinger 2001-2011
</metadata>
<g transform="translate(0.000000,675.000000) scale(0.100000,-0.100000)"
fill="#2f2d9f" stroke="none">
<path d="M605 6741 c8 -15 -23 -27 -84 -34 -29 -4 -58 -10 -65 -15 -6 -5 -23
-12 -38 -16 -79 -19 -238 -144 -294 -231 -10 -16 -24 -36 -30 -42 -7 -7 -20
-34 -29 -60 -9 -27 -21 -57 -27 -68 -31 -67 -32 -150 -32 -2910 0 -2760 1
-2843 32 -2910 6 -11 18 -41 27 -68 9 -26 22 -53 29 -60 6 -6 22 -28 34 -48
29 -48 114 -127 187 -173 60 -39 137 -69 230 -89 71 -16 5569 -16 5640 0 93
20 170 50 230 89 73 46 158 125 187 173 12 20 25 38 28 41 22 16 80 183 80
227 0 31 18 65 31 58 5 -4 9 1016 9 2760 0 1744 -4 2764 -9 2760 -13 -7 -31
27 -31 58 0 44 -56 203 -80 227 -3 3 -17 23 -32 45 -57 84 -213 206 -283 221
-16 3 -35 10 -41 16 -7 5 -36 11 -65 15 -61 7 -92 19 -84 34 4 5 -1016 9
-2760 9 -1744 0 -2764 -4 -2760 -9z m3065 -1225 c52 -8 124 -22 160 -31 36 -9
90 -23 120 -30 61 -15 113 -34 147 -53 12 -7 29 -12 37 -12 45 0 372 -178 476
-259 187 -146 251 -206 363 -336 76 -89 73 -87 107 -135 14 -19 27 -37 30 -40
13 -13 70 -102 70 -109 0 -5 8 -19 18 -32 11 -13 38 -62 61 -109 23 -47 49
-98 57 -113 8 -16 14 -33 14 -38 0 -10 34 -91 50 -121 6 -10 10 -29 10 -42 0
-14 5 -37 11 -53 64 -161 101 -496 81 -741 -17 -208 -44 -362 -78 -439 -8 -17
-14 -45 -14 -61 0 -17 -4 -33 -9 -36 -5 -3 -12 -18 -15 -33 -4 -16 -13 -41
-21 -58 -7 -16 -21 -48 -30 -70 -29 -68 -106 -219 -121 -236 -8 -8 -14 -19
-14 -23 0 -9 -109 -168 -125 -181 -6 -5 -16 -17 -21 -26 -12 -21 -83 -107
-106 -128 -16 -14 5 -37 288 -319 170 -169 304 -310 302 -319 -3 -12 -127 -14
-902 -13 -640 0 -903 4 -913 11 -20 17 -19 1807 1 1815 8 3 131 -113 318 -300
168 -169 311 -306 318 -306 17 0 60 40 60 55 0 7 9 20 19 29 20 19 131 198
131 213 0 4 14 35 30 68 16 33 30 70 30 82 0 12 6 37 14 55 25 59 45 171 50
283 6 121 -5 302 -22 356 -23 76 -42 146 -47 177 -4 17 -11 32 -16 32 -5 0 -9
7 -9 16 0 9 -6 28 -14 42 -8 15 -24 47 -36 72 -12 25 -43 76 -69 113 -25 38
-51 78 -58 90 -17 31 -208 214 -257 245 -22 15 -43 29 -46 33 -9 10 -177 109
-186 109 -4 0 -42 13 -83 29 -98 38 -177 61 -208 61 -14 0 -42 4 -62 10 -20 5
-62 12 -93 15 l-58 6 0 398 c0 219 3 401 8 405 9 10 123 1 252 -18z m-652 -31
c9 -3 12 -194 12 -905 0 -801 -2 -901 -15 -907 -11 -4 -109 88 -322 301 -168
168 -309 306 -314 306 -15 0 -48 -38 -94 -108 -24 -37 -48 -71 -53 -77 -19
-24 -112 -219 -112 -236 0 -11 -4 -27 -9 -37 -18 -32 -49 -157 -57 -227 -10
-90 -10 -280 0 -370 8 -70 39 -195 57 -227 5 -10 9 -27 9 -37 0 -11 16 -50 35
-88 19 -37 35 -72 35 -77 0 -5 18 -35 40 -68 22 -33 40 -62 40 -65 0 -8 72
-98 119 -148 56 -60 196 -185 207 -185 4 0 22 -11 39 -25 42 -31 227 -125 248
-125 9 0 18 -4 21 -9 3 -5 23 -12 43 -16 21 -4 43 -11 49 -16 11 -9 74 -20
232 -41 l92 -12 0 -403 0 -403 -81 0 c-78 0 -220 20 -287 42 -19 5 -57 14 -85
18 -69 11 -171 42 -254 77 -17 7 -34 13 -39 13 -7 0 -51 20 -174 78 -19 10
-41 23 -48 30 -7 6 -18 12 -23 12 -5 0 -28 12 -52 27 -23 15 -59 37 -80 48
-21 11 -51 33 -66 48 -16 15 -33 27 -38 27 -6 0 -23 13 -39 30 -16 16 -33 30
-37 30 -22 0 -317 296 -317 317 0 3 -16 24 -36 47 -47 55 -54 64 -54 72 0 3
-13 23 -30 44 -16 21 -30 42 -30 47 0 5 -13 27 -30 49 -16 21 -30 47 -30 56 0
9 -4 19 -9 22 -11 7 -81 149 -81 164 0 10 -23 62 -51 114 -5 10 -9 30 -9 45 0
16 -6 40 -14 55 -8 15 -17 42 -21 60 -4 18 -10 38 -14 43 -11 18 -40 212 -61
417 -11 105 -10 118 20 368 18 152 45 278 76 347 8 17 14 40 14 51 0 19 16 64
45 127 26 57 45 103 45 109 0 3 14 28 30 54 17 27 30 57 30 66 0 9 3 16 8 16
7 0 24 26 65 99 27 50 90 134 170 229 l70 83 -29 31 c-96 101 -559 558 -566
558 -8 0 -12 33 -4 41 6 6 1798 0 1814 -6z"/>
</g>
</svg>
